<?xml version="1.0" encoding="utf-8"?>
<!-- Generator: Adobe Illustrator 26.2.1, SVG Export Plug-In . SVG Version: 6.00 Build 0)  -->
<svg version="1.1" id="Layer_1" xmlns="http://www.w3.org/2000/svg" xmlns:xlink="http://www.w3.org/1999/xlink" x="0px" y="0px"
	 viewBox="0 0 595.3 841.9" style="enable-background:new 0 0 595.3 841.9;" xml:space="preserve">
<style type="text/css">
	.st0{fill:#FFFFFF;stroke:#000000;stroke-miterlimit:10;}
	.st1{fill:none;stroke:#000000;stroke-miterlimit:10;}
	.st2{font-family:'MyriadPro-Regular';}
	.st3{font-size:12px;}
</style>
<rect x="101.1" y="89.6" class="st0" width="83.6" height="83.6"/>
<rect x="101.1" y="190.3" class="st0" width="83.6" height="26.7"/>
<circle class="st0" cx="270.9" cy="116.4" r="26.7"/>
<ellipse class="st0" cx="270.9" cy="168.7" rx="26.7" ry="14.4"/>
<line class="st1" x1="384" y1="89.6" x2="467.6" y2="89.6"/>
<line class="st1" x1="384" y1="112.9" x2="384" y2="173.2"/>
<line class="st1" x1="410.5" y1="115" x2="455" y2="171.2"/>
<polygon class="st1" points="164.2,262.4 121.7,262.4 100.5,299.2 121.7,336 164.2,336 185.4,299.2 "/>
<polygon class="st1" points="270.9,245.4 286.9,277.7 322.5,282.9 296.7,308 302.8,343.4 270.9,326.7 239.1,343.4 245.2,308 
	219.4,282.9 255,277.7 "/>
<path class="st1" d="M384,307.2c22.3-36.6,34.2-46.7,40.4-44.5c11,3.9-0.7,44.2,15.1,54.1c10.2,6.4,31.3-0.5,71.9-35.6"/>
<text transform="matrix(1 0 0 1 121.2952 420.945)" class="st2 st3">fox in socks</text>
<text transform="matrix(0.8404 0.542 -0.542 0.8404 323.8552 387.3049)" class="st2 st3">green eggs and ham</text>
</svg>
